# xmcd
#
# Track frame offsets:
#	150
#	16291
#	34163
#	51117
#	68360
#	85359
#	102595
#	118826
#	136132
#	150487
#	167482
#	183691
#	201268
#	221911
#
# Disc length: 3198 seconds
#
# Revision: 1
# Processed by: cddbd v1.5.1PL0 Copyright (c) Steve Scherf et al.
# Submitted via: audiograbber 1.83.01
#
DISCID=c30c7c0e
DTITLE=Gerd Christian - Ich werde da sein
DYEAR=1900
DGENRE=Deutsch
TTITLE0=Ich werde da sein
TTITLE1=Sag Ihr auch (Version 2003)
TTITLE2=Dreh dich nicht um
TTITLE3=Erinnerst du dich
TTITLE4=Träum in meinem Arm
TTITLE5=Ganz egal
TTITLE6=Mein Leben mit dir
TTITLE7=Hinterm Horizont
TTITLE8=Ich träum von Dir
TTITLE9=Nichts auf der Welt
TTITLE10=Schön euch zu sehen
TTITLE11=Wo bist du
TTITLE12=Hitmix 2003
TTITLE13=Sag Ihr auch (Classic Version)
EXTD=
EXTT0=
EXTT1=
EXTT2=
EXTT3=
EXTT4=
EXTT5=
EXTT6=
EXTT7=
EXTT8=
EXTT9=
EXTT10=
EXTT11=
EXTT12=
EXTT13=
PLAYORDER=
